<svg width="40" height="40" viewBox="0 0 40 40" fill="none" xmlns="http://www.w3.org/2000/svg">
    <!-- Background Circle -->
    <circle cx="20" cy="20" r="20" fill="#2563EB"/>
    
    <!-- Plant/Tree Symbol (Representing Rural) -->
    <path d="M20 8C16 8 14 12 14 15C14 18 16 20 20 20C24 20 26 18 26 15C26 12 24 8 20 8Z" fill="white"/>
    
    <!-- Book Pages (Representing Knowledge/Genius) -->
    <path d="M14 22V28C14 29.1046 14.8954 30 16 30H24C25.1046 30 26 29.1046 26 28V22H24V28H16V22H14Z" fill="white"/>
    <path d="M17 24H23V26H17V24Z" fill="#2563EB"/>
    
    <!-- Circular Dots (Representing Connection/Network) -->
    <circle cx="16" cy="14" r="1.5" fill="#2563EB"/>
    <circle cx="24" cy="14" r="1.5" fill="#2563EB"/>
</svg>